<svg width="167" height="27" viewBox="0 0 167 27" fill="none" xmlns="http://www.w3.org/2000/svg">
<mask id="mask0_10_133" style="mask-type:alpha" maskUnits="userSpaceOnUse" x="0" y="1" width="24" height="25">
<rect y="1.5" width="24" height="24" fill="#009688"/>
</mask>
<g mask="url(#mask0_10_133)">
<path d="M11 18.5H7C5.61667 18.5 4.4375 18.0125 3.4625 17.0375C2.4875 16.0625 2 14.8833 2 13.5C2 12.1167 2.4875 10.9375 3.4625 9.9625C4.4375 8.9875 5.61667 8.5 7 8.5H11V10.5H7C6.16667 10.5 5.45833 10.7917 4.875 11.375C4.29167 11.9583 4 12.6667 4 13.5C4 14.3333 4.29167 15.0417 4.875 15.625C5.45833 16.2083 6.16667 16.5 7 16.5H11V18.5ZM8 14.5V12.5H16V14.5H8ZM13 18.5V16.5H17C17.8333 16.5 18.5417 16.2083 19.125 15.625C19.7083 15.0417 20 14.3333 20 13.5C20 12.6667 19.7083 11.9583 19.125 11.375C18.5417 10.7917 17.8333 10.5 17 10.5H13V8.5H17C18.3833 8.5 19.5625 8.9875 20.5375 9.9625C21.5125 10.9375 22 12.1167 22 13.5C22 14.8833 21.5125 16.0625 20.5375 17.0375C19.5625 18.0125 18.3833 18.5 17 18.5H13Z" fill="#009688"/>
</g>
<path d="M41.282 11.903H37.796V9.803C37.796 9.068 37.565 8.648 36.872 8.648C36.116 8.648 35.948 9.068 35.948 9.803C35.948 12.323 41.282 13.058 41.282 17.678C41.282 20.492 39.77 21.794 36.851 21.794C34.625 21.794 32.462 21.038 32.462 18.455V15.683H35.948V18.266C35.948 19.148 36.221 19.4 36.872 19.4C37.439 19.4 37.796 19.148 37.796 18.266C37.796 14.885 32.462 14.822 32.462 9.992C32.462 7.283 34.247 6.254 36.935 6.254C39.287 6.254 41.282 7.052 41.282 9.551V11.903ZM52.4932 6.548V17.237C52.4092 20.408 51.3172 21.794 48.0622 21.794C43.7572 21.794 43.6732 18.791 43.6732 16.901V6.548H47.1592V17.321C47.1592 18.518 47.1592 19.4 48.0622 19.4C49.0072 19.4 49.0072 18.518 49.0072 17.321V6.548H52.4932ZM58.3704 14.759V19.358C60.2394 19.526 60.2184 18.455 60.2184 16.901C60.2184 14.78 59.8404 14.759 58.3704 14.759ZM54.8844 21.5V6.548H58.4124C61.3734 6.548 63.7044 6.59 63.7044 10.181C63.7044 11.84 63.2214 13.331 61.2264 13.52V13.667C63.4524 13.667 63.7044 15.305 63.7044 17.237C63.7044 21.353 62.1084 21.5 58.4124 21.5H54.8844ZM58.3704 8.69V12.617C59.4624 12.554 60.2184 12.911 60.2184 10.664C60.2184 9.194 60.0924 8.585 58.3704 8.69ZM74.9156 11.903H71.4296V9.803C71.4296 9.068 71.1986 8.648 70.5056 8.648C69.7496 8.648 69.5816 9.068 69.5816 9.803C69.5816 12.323 74.9156 13.058 74.9156 17.678C74.9156 20.492 73.4036 21.794 70.4846 21.794C68.2586 21.794 66.0956 21.038 66.0956 18.455V15.683H69.5816V18.266C69.5816 19.148 69.8546 19.4 70.5056 19.4C71.0726 19.4 71.4296 19.148 71.4296 18.266C71.4296 14.885 66.0956 14.822 66.0956 9.992C66.0956 7.283 67.8806 6.254 70.5686 6.254C72.9206 6.254 74.9156 7.052 74.9156 9.551V11.903ZM82.6618 15.683H86.1268V17.657C86.1268 20.45 84.6358 21.794 81.6958 21.794C79.3858 21.794 77.3068 20.849 77.3068 17.426V10.622C77.3068 7.199 79.3858 6.254 81.6958 6.254C84.2368 6.254 86.1268 7.01 86.1268 10.244V11.882H82.6408V9.824C82.6408 9.215 82.4518 8.648 81.6958 8.648C80.9818 8.648 80.7928 9.215 80.7928 9.824V18.224C80.7928 18.833 80.9818 19.4 81.6958 19.4C82.4518 19.4 82.6408 18.833 82.6408 18.224L82.6618 15.683ZM91.9621 21.5H88.4761V6.548H91.9831C95.3011 6.548 97.2751 6.884 97.2751 10.034C97.2751 11.903 96.4981 13.121 94.6081 13.436V13.478C96.2881 13.52 97.2751 14.15 97.2751 16.292V19.421C97.2751 20.009 97.3801 20.891 97.8001 21.5H94.2931C93.8731 20.891 93.7891 20.009 93.7891 19.421V16.25C93.7891 15.2 93.1591 14.675 92.5291 14.675H91.9621V21.5ZM91.9621 8.69V12.533C93.5371 12.533 93.7891 12.008 93.7891 10.601C93.7891 9.215 93.5581 8.69 91.9621 8.69ZM103.152 21.5H99.6663V6.548H103.152V21.5ZM108.971 14.759V19.358C110.84 19.526 110.819 18.455 110.819 16.901C110.819 14.78 110.441 14.759 108.971 14.759ZM105.485 21.5V6.548H109.013C111.974 6.548 114.305 6.59 114.305 10.181C114.305 11.84 113.822 13.331 111.827 13.52V13.667C114.053 13.667 114.305 15.305 114.305 17.237C114.305 21.353 112.709 21.5 109.013 21.5H105.485ZM108.971 8.69V12.617C110.063 12.554 110.819 12.911 110.819 10.664C110.819 9.194 110.693 8.585 108.971 8.69ZM123.879 21.5H116.655V6.548H123.879V8.816H120.141V12.092H123.753V14.36H120.141V19.232H123.879V21.5Z" fill="#009688"/>
<path d="M134.759 11.903H131.273V9.803C131.273 9.068 131.042 8.648 130.349 8.648C129.593 8.648 129.425 9.068 129.425 9.803C129.425 12.323 134.759 13.058 134.759 17.678C134.759 20.492 133.247 21.794 130.328 21.794C128.102 21.794 125.939 21.038 125.939 18.455V15.683H129.425V18.266C129.425 19.148 129.698 19.4 130.349 19.4C130.916 19.4 131.273 19.148 131.273 18.266C131.273 14.885 125.939 14.822 125.939 9.992C125.939 7.283 127.724 6.254 130.412 6.254C132.764 6.254 134.759 7.052 134.759 9.551V11.903ZM139.418 8.816H136.982V6.548H145.34V8.816H142.904V21.5H139.418V8.816ZM149.288 15.557H150.548L149.939 8.9H149.897L149.288 15.557ZM147.944 6.548H152.732L154.664 21.5H151.199L150.8 17.825H148.91L148.343 21.5H145.403L147.944 6.548ZM160.289 21.5H156.803V6.548H160.31C163.628 6.548 165.602 6.884 165.602 10.034C165.602 11.903 164.825 13.121 162.935 13.436V13.478C164.615 13.52 165.602 14.15 165.602 16.292V19.421C165.602 20.009 165.707 20.891 166.127 21.5H162.62C162.2 20.891 162.116 20.009 162.116 19.421V16.25C162.116 15.2 161.486 14.675 160.856 14.675H160.289V21.5ZM160.289 8.69V12.533C161.864 12.533 162.116 12.008 162.116 10.601C162.116 9.215 161.885 8.69 160.289 8.69Z" fill="#FF4081"/>
</svg>
