<svg width="143" height="81" viewBox="0 0 143 81" fill="none" xmlns="http://www.w3.org/2000/svg">
<path d="M69.2433 17.965L69.2536 62.4706C69.2536 62.8206 69.2639 63.1706 69.2846 63.5182C69.2849 63.6807 69.4151 63.8168 69.5867 63.8342C69.749 63.8584 69.913 63.8706 70.0773 63.8706H79.7419L79.8242 63.8703C80.3289 63.8685 80.589 63.8676 80.7229 63.7451C80.8653 63.615 80.8653 63.3476 80.8651 62.796L80.8651 62.0429C80.8496 57.0667 80.8496 52.0906 80.8651 47.1145C80.8658 46.957 80.8549 46.7981 80.8439 46.6388C80.8125 46.1836 80.781 45.7255 81.0201 45.2916C81.4935 45.1256 81.9813 45.1484 82.4674 45.1712C82.636 45.1792 82.8045 45.1871 82.9721 45.1871H90.2819C90.9171 45.1846 91.0075 45.1141 91.1262 44.5721C91.1774 44.3443 91.2042 44.1123 91.2063 43.8794V36.5319C91.1984 36.2614 91.1595 35.9924 91.0901 35.7298C90.9791 35.2777 90.8887 35.2097 90.4342 35.1878H82.3731C82.2629 35.1878 82.1527 35.1897 82.0426 35.1916C81.8222 35.1954 81.6019 35.1992 81.3815 35.1878C80.9968 35.1878 80.8961 35.0736 80.8651 34.7017C80.8626 34.6628 80.8626 34.6239 80.8651 34.585V27.3542C80.8677 26.8924 80.9839 26.7903 81.4358 26.7684H91.1082C91.4387 26.7684 91.7692 26.7635 92.0971 26.7465C92.3157 26.7465 92.4933 26.5804 92.4947 26.3747C92.5128 26.066 92.5128 25.7549 92.5128 25.4438V17.8629C92.5128 17.7654 92.5133 17.675 92.5138 17.5912C92.5169 17.0627 92.5184 16.7973 92.3782 16.6655C92.2377 16.5335 91.9548 16.5348 91.3885 16.5374C91.3026 16.5378 91.2102 16.5383 91.1107 16.5383H70.7925C70.638 16.5383 70.4988 16.5369 70.3734 16.5357C69.8085 16.5304 69.5235 16.5277 69.3807 16.6601C69.2353 16.7949 69.2374 17.0698 69.2416 17.6247C69.2424 17.7281 69.2433 17.8413 69.2433 17.965Z" fill="white"/>
<path d="M107.546 48.1353V35.0711C107.58 34.2163 107.55 33.3603 107.458 32.5093C107.429 32.1608 107.44 31.8104 107.491 31.4642C107.613 30.0302 107.641 28.5913 107.61 27.1549C107.61 26.6955 107.497 26.5983 107.019 26.5958H101.444C101.231 26.5958 101.043 26.5984 100.879 26.6006C100.282 26.6087 99.9869 26.6127 99.8432 26.4764C99.7032 26.3436 99.7067 26.0777 99.7135 25.5525C99.7156 25.3937 99.718 25.2112 99.7168 25.0014C99.7082 23.4199 99.711 21.8385 99.7139 20.257L99.7139 20.2404C99.7153 19.4552 99.7168 18.67 99.7168 17.8848C99.7168 17.5737 99.7168 17.2626 99.7374 16.9539C99.7325 16.8563 99.7694 16.761 99.8398 16.6893C99.9101 16.6176 100.008 16.5754 100.112 16.5723C100.398 16.5528 100.688 16.548 100.977 16.548H125.765C127.038 16.548 127.056 16.548 127.056 17.79V25.3708C127.056 25.6431 127.056 25.9153 127.032 26.1875C127.037 26.2861 126.998 26.3821 126.927 26.4539C126.855 26.5257 126.755 26.5672 126.65 26.5691C126.361 26.5861 126.072 26.5934 125.785 26.5958H120.691C120.36 26.5958 120.03 26.5958 119.702 26.6129C119.486 26.6017 119.3 26.755 119.284 26.958C119.267 27.0732 119.256 27.1893 119.253 27.3056C119.238 27.9629 119.215 28.6204 119.192 29.278C119.14 30.7575 119.089 32.2376 119.126 33.7149C119.267 39.3907 119.242 45.0665 119.216 50.7431L119.216 50.7475C119.204 53.5046 119.192 56.2618 119.198 59.0193C119.198 59.8545 119.173 60.6933 119.148 61.5324C119.132 62.092 119.115 62.653 119.105 63.212C119.093 63.8536 119.02 63.9217 118.292 63.9241H112.353C110.99 63.9241 109.627 63.9241 108.263 63.9022C107.7 63.9022 107.615 63.8123 107.582 63.3019C107.556 62.8765 107.556 62.4463 107.556 62.0186C107.549 57.3908 107.546 52.7631 107.546 48.1353Z" fill="white"/>
<path d="M20.6592 18.0646L20.667 63.314C20.6902 63.8293 20.7599 63.8852 21.3538 63.9071H39.689C39.7855 63.9071 39.882 63.9087 39.9784 63.9103C40.1709 63.9136 40.363 63.9168 40.554 63.9071C41.0575 63.8877 41.1453 63.8123 41.1685 63.3724V54.2749C41.1672 53.5411 41.201 53.2004 41.0361 53.0434C40.8689 52.8842 40.4976 52.9138 39.6787 52.9138H32.9886C32.2139 52.9113 32.1184 52.8214 32.1003 52.1287C32.0693 51.1954 32.0693 50.262 32.0693 49.3287V18.1813C32.0693 18.0646 32.0711 17.948 32.0728 17.8313C32.0762 17.598 32.0797 17.3646 32.0693 17.1313C32.0461 16.633 31.9583 16.5601 31.3851 16.5383H22.3401C21.3905 16.5419 20.9713 16.4898 20.7891 16.6604C20.6105 16.8276 20.6592 17.2084 20.6592 18.0646Z" fill="white"/>
<path fill-rule="evenodd" clip-rule="evenodd" d="M1.79726 80.2865C1.60414 80.2865 1.43346 80.2886 1.28263 80.2904C0.699831 80.2974 0.413501 80.3008 0.275668 80.1683C0.142608 80.0404 0.147882 79.7858 0.158247 79.2854C0.16156 79.1254 0.165395 78.9403 0.165395 78.7261C0.155066 53.4939 0.149902 28.2583 0.149902 3.01958V1.50292C0.149902 0.579314 0.173141 0.550147 1.20338 0.530703H140.738C140.868 0.530703 140.988 0.530194 141.1 0.529722C141.854 0.526532 142.215 0.525009 142.384 0.693003C142.539 0.846572 142.534 1.1418 142.525 1.70689C142.522 1.8606 142.52 2.03593 142.52 2.23208V78.6386C142.52 78.849 142.523 79.0328 142.526 79.1934C142.535 79.7403 142.54 80.0182 142.395 80.1571C142.245 80.3001 141.936 80.2962 141.309 80.2884C141.136 80.2863 140.938 80.2838 140.712 80.2841L1.79726 80.2865ZM131.887 71.8841C132.297 71.8841 132.71 71.872 133.123 71.8477C133.297 71.8452 133.438 71.7146 133.444 71.5511C133.469 71.1647 133.488 70.7758 133.488 70.3869V9.61121C133.462 9.15184 133.364 9.04975 132.912 9.02545C132.61 9.01153 132.304 9.01225 131.999 9.01298L131.796 9.0133H62.029C61.8166 9.0133 61.6293 9.01084 61.4642 9.00867C60.8495 9.00059 60.5424 8.99656 60.3912 9.13861C60.2402 9.28039 60.2444 9.56772 60.2529 10.1418C60.2553 10.3027 60.258 10.4862 60.2577 10.6952V51.4044C60.2577 51.7933 60.25 52.1822 60.2345 52.571C60.238 52.6692 60.199 52.7645 60.1264 52.835C60.0539 52.9056 59.954 52.9454 59.8497 52.9454C59.5744 52.9636 59.2991 52.9649 59.0238 52.9663L58.8582 52.9672H50.5569C50.3531 52.9672 50.1737 52.9696 50.0159 52.9717C49.4357 52.9795 49.1465 52.9834 49.0043 52.8497C48.8631 52.7168 48.8669 52.4482 48.8744 51.9128C48.8764 51.7742 48.8786 51.6175 48.8786 51.4408V10.4984C48.8786 10.3615 48.8798 10.2372 48.8809 10.1243C48.8861 9.57804 48.8888 9.29786 48.7413 9.15569C48.5867 9.00678 48.2673 9.00852 47.6134 9.01206C47.5042 9.01265 47.3857 9.0133 47.257 9.0133H12.9156C12.3693 9.0133 11.8229 8.99886 11.2776 8.98446C11.0807 8.97926 10.8839 8.97406 10.6873 8.96955C10.2922 8.96955 10.1709 9.04489 10.1709 9.43621C10.1476 10.2529 10.1347 11.0671 10.1347 11.8838V69.0404C10.1347 69.4682 10.1347 69.896 10.1502 70.3237C10.1574 70.5515 10.1586 70.7464 10.1596 70.9129C10.1624 71.3841 10.1639 71.6292 10.2952 71.7556C10.4376 71.8927 10.7328 71.89 11.348 71.8844C11.4862 71.8831 11.6406 71.8817 11.8131 71.8817L131.887 71.8841Z" fill="white"/>
<path d="M69.2433 17.965L69.2536 62.4706C69.2536 62.8206 69.2639 63.1706 69.2846 63.5182C69.2849 63.6807 69.4151 63.8168 69.5867 63.8342C69.749 63.8584 69.913 63.8706 70.0773 63.8706H79.7419L79.8242 63.8703C80.3289 63.8685 80.589 63.8676 80.7229 63.7451C80.8653 63.615 80.8653 63.3476 80.8651 62.796L80.8651 62.0429C80.8496 57.0667 80.8496 52.0906 80.8651 47.1145C80.8658 46.957 80.8549 46.7981 80.8439 46.6388C80.8125 46.1836 80.781 45.7255 81.0201 45.2916C81.4935 45.1256 81.9813 45.1484 82.4674 45.1712C82.636 45.1792 82.8045 45.1871 82.9721 45.1871H90.2819C90.9171 45.1846 91.0075 45.1141 91.1262 44.5721C91.1774 44.3443 91.2042 44.1123 91.2063 43.8794V36.5319C91.1984 36.2614 91.1595 35.9924 91.0901 35.7298C90.9791 35.2777 90.8887 35.2097 90.4342 35.1878H82.3731C82.2629 35.1878 82.1527 35.1897 82.0426 35.1916C81.8222 35.1954 81.6019 35.1992 81.3815 35.1878C80.9968 35.1878 80.8961 35.0736 80.8651 34.7017C80.8626 34.6628 80.8626 34.6239 80.8651 34.585V27.3542C80.8677 26.8924 80.9839 26.7903 81.4358 26.7684H91.1082C91.4387 26.7684 91.7692 26.7635 92.0971 26.7465C92.3157 26.7465 92.4933 26.5804 92.4947 26.3747C92.5128 26.066 92.5128 25.7549 92.5128 25.4438V17.8629C92.5128 17.7654 92.5133 17.675 92.5138 17.5912C92.5169 17.0627 92.5184 16.7973 92.3782 16.6655C92.2377 16.5335 91.9548 16.5348 91.3885 16.5374C91.3026 16.5378 91.2102 16.5383 91.1107 16.5383H70.7925C70.638 16.5383 70.4988 16.5369 70.3734 16.5357C69.8085 16.5304 69.5235 16.5277 69.3807 16.6601C69.2353 16.7949 69.2374 17.0698 69.2416 17.6247C69.2424 17.7281 69.2433 17.8413 69.2433 17.965Z" stroke="white"/>
<path d="M107.546 48.1353V35.0711C107.58 34.2163 107.55 33.3603 107.458 32.5093C107.429 32.1608 107.44 31.8104 107.491 31.4642C107.613 30.0302 107.641 28.5913 107.61 27.1549C107.61 26.6955 107.497 26.5983 107.019 26.5958H101.444C101.231 26.5958 101.043 26.5984 100.879 26.6006C100.282 26.6087 99.9869 26.6127 99.8432 26.4764C99.7032 26.3436 99.7067 26.0777 99.7135 25.5525C99.7156 25.3937 99.718 25.2112 99.7168 25.0014C99.7082 23.4199 99.711 21.8385 99.7139 20.257L99.7139 20.2404C99.7153 19.4552 99.7168 18.67 99.7168 17.8848C99.7168 17.5737 99.7168 17.2626 99.7374 16.9539C99.7325 16.8563 99.7694 16.761 99.8398 16.6893C99.9101 16.6176 100.008 16.5754 100.112 16.5723C100.398 16.5528 100.688 16.548 100.977 16.548H125.765C127.038 16.548 127.056 16.548 127.056 17.79V25.3708C127.056 25.6431 127.056 25.9153 127.032 26.1875C127.037 26.2861 126.998 26.3821 126.927 26.4539C126.855 26.5257 126.755 26.5672 126.65 26.5691C126.361 26.5861 126.072 26.5934 125.785 26.5958H120.691C120.36 26.5958 120.03 26.5958 119.702 26.6129C119.486 26.6017 119.3 26.755 119.284 26.958C119.267 27.0732 119.256 27.1893 119.253 27.3056C119.238 27.9629 119.215 28.6204 119.192 29.278C119.14 30.7575 119.089 32.2376 119.126 33.7149C119.267 39.3907 119.242 45.0665 119.216 50.7431L119.216 50.7475C119.204 53.5046 119.192 56.2618 119.198 59.0193C119.198 59.8545 119.173 60.6933 119.148 61.5324C119.132 62.092 119.115 62.653 119.105 63.212C119.093 63.8536 119.02 63.9217 118.292 63.9241H112.353C110.99 63.9241 109.627 63.9241 108.263 63.9022C107.7 63.9022 107.615 63.8123 107.582 63.3019C107.556 62.8765 107.556 62.4463 107.556 62.0186C107.549 57.3908 107.546 52.7631 107.546 48.1353Z" stroke="white"/>
<path d="M20.6592 18.0646L20.667 63.314C20.6902 63.8293 20.7599 63.8852 21.3538 63.9071H39.689C39.7855 63.9071 39.882 63.9087 39.9784 63.9103C40.1709 63.9136 40.363 63.9168 40.554 63.9071C41.0575 63.8877 41.1453 63.8123 41.1685 63.3724V54.2749C41.1672 53.5411 41.201 53.2004 41.0361 53.0434C40.8689 52.8842 40.4976 52.9138 39.6787 52.9138H32.9886C32.2139 52.9113 32.1184 52.8214 32.1003 52.1287C32.0693 51.1954 32.0693 50.262 32.0693 49.3287V18.1813C32.0693 18.0646 32.0711 17.948 32.0728 17.8313C32.0762 17.598 32.0797 17.3646 32.0693 17.1313C32.0461 16.633 31.9583 16.5601 31.3851 16.5383H22.3401C21.3905 16.5419 20.9713 16.4898 20.7891 16.6604C20.6105 16.8276 20.6592 17.2084 20.6592 18.0646Z" stroke="white"/>
<path fill-rule="evenodd" clip-rule="evenodd" d="M1.79726 80.2865C1.60414 80.2865 1.43346 80.2886 1.28263 80.2904C0.699831 80.2974 0.413501 80.3008 0.275668 80.1683C0.142608 80.0404 0.147882 79.7858 0.158247 79.2854C0.16156 79.1254 0.165395 78.9403 0.165395 78.7261C0.155066 53.4939 0.149902 28.2583 0.149902 3.01958V1.50292C0.149902 0.579314 0.173141 0.550147 1.20338 0.530703H140.738C140.868 0.530703 140.988 0.530194 141.1 0.529722C141.854 0.526532 142.215 0.525009 142.384 0.693003C142.539 0.846572 142.534 1.1418 142.525 1.70689C142.522 1.8606 142.52 2.03593 142.52 2.23208V78.6386C142.52 78.849 142.523 79.0328 142.526 79.1934C142.535 79.7403 142.54 80.0182 142.395 80.1571C142.245 80.3001 141.936 80.2962 141.309 80.2884C141.136 80.2863 140.938 80.2838 140.712 80.2841L1.79726 80.2865ZM131.887 71.8841C132.297 71.8841 132.71 71.872 133.123 71.8477C133.297 71.8452 133.438 71.7146 133.444 71.5511C133.469 71.1647 133.488 70.7758 133.488 70.3869V9.61121C133.462 9.15184 133.364 9.04975 132.912 9.02545C132.61 9.01153 132.304 9.01225 131.999 9.01298L131.796 9.0133H62.029C61.8166 9.0133 61.6293 9.01084 61.4642 9.00867C60.8495 9.00059 60.5424 8.99656 60.3912 9.13861C60.2402 9.28039 60.2444 9.56772 60.2529 10.1418C60.2553 10.3027 60.258 10.4862 60.2577 10.6952V51.4044C60.2577 51.7933 60.25 52.1822 60.2345 52.571C60.238 52.6692 60.199 52.7645 60.1264 52.835C60.0539 52.9056 59.954 52.9454 59.8497 52.9454C59.5744 52.9636 59.2991 52.9649 59.0238 52.9663L58.8582 52.9672H50.5569C50.3531 52.9672 50.1737 52.9696 50.0159 52.9717C49.4357 52.9795 49.1465 52.9834 49.0043 52.8497C48.8631 52.7168 48.8669 52.4482 48.8744 51.9128C48.8764 51.7742 48.8786 51.6175 48.8786 51.4408V10.4984C48.8786 10.3615 48.8798 10.2372 48.8809 10.1243C48.8861 9.57804 48.8888 9.29786 48.7413 9.15569C48.5867 9.00678 48.2673 9.00852 47.6134 9.01206C47.5042 9.01265 47.3857 9.0133 47.257 9.0133H12.9156C12.3693 9.0133 11.8229 8.99886 11.2776 8.98446C11.0807 8.97926 10.8839 8.97406 10.6873 8.96955C10.2922 8.96955 10.1709 9.04489 10.1709 9.43621C10.1476 10.2529 10.1347 11.0671 10.1347 11.8838V69.0404C10.1347 69.4682 10.1347 69.896 10.1502 70.3237C10.1574 70.5515 10.1586 70.7464 10.1596 70.9129C10.1624 71.3841 10.1639 71.6292 10.2952 71.7556C10.4376 71.8927 10.7328 71.89 11.348 71.8844C11.4862 71.8831 11.6406 71.8817 11.8131 71.8817L131.887 71.8841Z" stroke="white"/>
</svg>
