<svg width="633" height="120" viewBox="0 0 633 120" fill="none" xmlns="http://www.w3.org/2000/svg">
<path d="M272.684 79.6639H0.5V0.5H632.5V79.6639H559.352H559.149L559.004 79.8052L518.311 119.324L472.045 79.7838L471.905 79.6639H471.72H272.684Z" stroke="#009688"/>
<path d="M282.273 46.472C282.273 47.6453 281.964 48.7333 281.345 49.736C280.748 50.7173 279.852 51.528 278.657 52.168C277.484 52.7867 276.086 53.128 274.465 53.192V55.784H272.417V53.16C270.156 52.968 268.332 52.296 266.945 51.144C265.558 49.9707 264.822 48.3813 264.737 46.376H270.561C270.689 47.656 271.308 48.4773 272.417 48.84V43.784C270.753 43.3573 269.42 42.9413 268.417 42.536C267.436 42.1307 266.572 41.48 265.825 40.584C265.078 39.688 264.705 38.4613 264.705 36.904C264.705 34.9627 265.42 33.4053 266.849 32.232C268.3 31.0587 270.156 30.3973 272.417 30.248V27.656H274.465V30.248C276.705 30.4187 278.476 31.0693 279.777 32.2C281.078 33.3307 281.804 34.8987 281.953 36.904H276.097C275.969 35.752 275.425 35.0053 274.465 34.664V39.624C276.236 40.1147 277.601 40.552 278.561 40.936C279.521 41.32 280.374 41.96 281.121 42.856C281.889 43.7307 282.273 44.936 282.273 46.472ZM270.497 36.648C270.497 37.1813 270.657 37.6293 270.977 37.992C271.318 38.3547 271.798 38.6747 272.417 38.952V34.504C271.82 34.6107 271.35 34.8453 271.009 35.208C270.668 35.5493 270.497 36.0293 270.497 36.648ZM274.465 48.936C275.105 48.8293 275.606 48.5733 275.969 48.168C276.353 47.7627 276.545 47.2613 276.545 46.664C276.545 46.1093 276.364 45.6613 276.001 45.32C275.66 44.9573 275.148 44.648 274.465 44.392V48.936ZM285.607 48.616C286.333 48.04 286.663 47.7733 286.599 47.816C288.69 46.088 290.333 44.6693 291.527 43.56C292.743 42.4507 293.767 41.288 294.599 40.072C295.431 38.856 295.847 37.672 295.847 36.52C295.847 35.6453 295.645 34.9627 295.239 34.472C294.834 33.9813 294.226 33.736 293.415 33.736C292.605 33.736 291.965 34.0453 291.495 34.664C291.047 35.2613 290.823 36.1147 290.823 37.224H285.543C285.586 35.4107 285.97 33.896 286.695 32.68C287.442 31.464 288.413 30.568 289.607 29.992C290.823 29.416 292.167 29.128 293.639 29.128C296.178 29.128 298.087 29.7787 299.367 31.08C300.669 32.3813 301.319 34.0773 301.319 36.168C301.319 38.4507 300.541 40.5733 298.983 42.536C297.426 44.4773 295.442 46.376 293.031 48.232H301.671V52.68H285.607V48.616ZM310.513 47.944L306.961 57.128H303.473L305.329 47.944H310.513ZM324.82 35.944C324.649 35.1547 324.351 34.568 323.924 34.184C323.497 33.7787 322.889 33.576 322.1 33.576C320.884 33.576 320.009 34.1093 319.476 35.176C318.943 36.2213 318.665 37.8853 318.644 40.168C319.113 39.4213 319.785 38.8347 320.66 38.408C321.556 37.9813 322.537 37.768 323.604 37.768C325.695 37.768 327.369 38.4293 328.628 39.752C329.908 41.0747 330.548 42.92 330.548 45.288C330.548 46.8453 330.228 48.2107 329.588 49.384C328.969 50.5573 328.052 51.4747 326.836 52.136C325.641 52.7973 324.223 53.128 322.58 53.128C319.295 53.128 317.012 52.104 315.732 50.056C314.452 47.9867 313.812 45.0213 313.812 41.16C313.812 37.1067 314.484 34.0987 315.828 32.136C317.193 30.152 319.369 29.16 322.356 29.16C323.956 29.16 325.3 29.48 326.388 30.12C327.497 30.7387 328.329 31.56 328.884 32.584C329.46 33.608 329.801 34.728 329.908 35.944H324.82ZM322.292 42.088C321.375 42.088 320.607 42.3653 319.988 42.92C319.391 43.4533 319.092 44.2213 319.092 45.224C319.092 46.248 319.369 47.048 319.924 47.624C320.5 48.2 321.311 48.488 322.356 48.488C323.295 48.488 324.031 48.2107 324.564 47.656C325.119 47.08 325.396 46.3013 325.396 45.32C325.396 44.3173 325.129 43.528 324.596 42.952C324.063 42.376 323.295 42.088 322.292 42.088ZM348.555 33.736L340.523 53H334.923L343.051 34.344H333.099V29.672H348.555V33.736ZM350.96 36.232C351.045 33.9493 351.792 32.1893 353.2 30.952C354.608 29.7147 356.517 29.096 358.928 29.096C360.528 29.096 361.893 29.3733 363.024 29.928C364.176 30.4827 365.04 31.24 365.616 32.2C366.213 33.16 366.512 34.2373 366.512 35.432C366.512 36.84 366.16 37.992 365.456 38.888C364.752 39.7627 363.931 40.36 362.992 40.68V40.808C364.208 41.2133 365.168 41.8853 365.872 42.824C366.576 43.7627 366.928 44.968 366.928 46.44C366.928 47.7627 366.619 48.936 366 49.96C365.403 50.9627 364.517 51.752 363.344 52.328C362.192 52.904 360.816 53.192 359.216 53.192C356.656 53.192 354.608 52.5627 353.072 51.304C351.557 50.0453 350.757 48.1467 350.672 45.608H355.984C356.005 46.5467 356.272 47.2933 356.784 47.848C357.296 48.3813 358.043 48.648 359.024 48.648C359.856 48.648 360.496 48.4133 360.944 47.944C361.413 47.4533 361.648 46.8133 361.648 46.024C361.648 45 361.317 44.264 360.656 43.816C360.016 43.3467 358.981 43.112 357.552 43.112H356.528V38.664H357.552C358.64 38.664 359.515 38.4827 360.176 38.12C360.859 37.736 361.2 37.064 361.2 36.104C361.2 35.336 360.987 34.7387 360.56 34.312C360.133 33.8853 359.547 33.672 358.8 33.672C357.989 33.672 357.381 33.9173 356.976 34.408C356.592 34.8987 356.368 35.5067 356.304 36.232H350.96Z" fill="#009688"/>
</svg>
